# xmcd
#
# Track frame offsets: 
#        150
#        15493
#        29853
#        42192
#        65332
#        78883
#        98465
#        114554
#        133918
#        164866
#        179294
#        195969
#        207443
#        217232
#        236488
#        260847
#        276165
#        289148
#        307120
#        315465
#        334903
#
# Disc length: 4668 seconds
#
# Revision: 1
# Processed by: cddbd v1.5.2PL0 Copyright (c) Steve Scherf et al.
# Submitted via: ExactAudioCopyFreeDBPlugin 1.0
#
DISCID=41123a15
DTITLE=Guitar Gabriel - Guitar Gabriel:  The Beginning of The Music Ma
DTITLE=ker Story
DYEAR=2009
DGENRE=Blues
TTITLE0=Wahoo Rap
TTITLE1=She Been Gone Too Long
TTITLE2=Ain't Gonna Let No Woman
TTITLE3=Started Out This Morning
TTITLE4=Going to New York
TTITLE5=Miss You Like the Devil
TTITLE6=John Henry
TTITLE7=Old Man Rivers
TTITLE8=I Got the Right to Cry Sometimes
TTITLE9=The Welfare Blues
TTITLE10=Rock Me Baby
TTITLE11=You Got to Watch Yourself
TTITLE12=Baby Please Don't Go
TTITLE13=Betty and Dupree
TTITLE14=Done Got Tired
TTITLE15=Meet Me in the Bottom
TTITLE16=Landlord Blues
TTITLE17=Key to the Highway
TTITLE18=Running with Jesus is Just Like an Automobile
TTITLE19=Okalaka Blues
TTITLE20=Left That Farm
EXTD=
EXTT0=
EXTT1=
EXTT2=
EXTT3=
EXTT4=
EXTT5=
EXTT6=
EXTT7=
EXTT8=
EXTT9=
EXTT10=
EXTT11=
EXTT12=
EXTT13=
EXTT14=
EXTT15=
EXTT16=
EXTT17=
EXTT18=
EXTT19=
EXTT20=
PLAYORDER=
